PathFileType   4   (X/Y/Z)
DataRate	CameraRate	NumFrames	NumMarkers	Units	OrigDataRate	OrigDataStartFrame	OrigNumFrames
120.0	120.0	6	37	mm	120.0	28	108
Frame#	Time	midhip	hip_r	hip_l	knee_r	knee_l	ankle_r	ankle_l	midasis	asis_r	asis_l	psis_r	psis_l	epicondLat_r	epicondLat_l	epicondMed_r	epicondMed_l	malleolusLat_r	malleolusLat_l	malleolusMedv_r	malleolusMedv_l	neck	subclavicle_r	subclavicle_l	sternalnotch	xyphoidprocess	thighwand_r	thighwand_l	upperleg1_r	upperleg1_l	upperleg2_r	upperleg2_l	shankwand_r	shankwand_l	lowerleg1_r	lowerleg1_l	toe_r	toe_l
 	 	X1	Y1	Z1	X2	Y2	Z2	X3	Y3	Z3	X4	Y4	Z4	X5	Y5	Z5	X6	Y6	Z6	X7	Y7	Z7	X8	Y8	Z8	X9	Y9	Z9	X10	Y10	Z10	X11	Y11	Z11	X12	Y12	Z12	X13	Y13	Z13	X14	Y14	Z14	X15	Y15	Z15	X16	Y16	Z16	X17	Y17	Z17	X18	Y18	Z18	X19	Y19	Z19	X20	Y20	Z20	X21	Y21	Z21	X22	Y22	Z22	X23	Y23	Z23	X24	Y24	Z24	X25	Y25	Z25	X26	Y26	Z26	X27	Y27	Z27	X28	Y28	Z28	X29	Y29	Z29	X30	Y30	Z30	X31	Y31	Z31	X32	Y32	Z32	X33	Y33	Z33	X34	Y34	Z34	X35	Y35	Z35	X36	Y36	Z36	X37	Y37	Z37

	28	0.31667	797.206	900.176	-175.634	791.932	874.402	-106.269	787.858	881.123	-256.493	741.470	473.863	-112.108	975.218	493.392	-251.684	659.235	75.061	-152.059	886.217	112.425	-241.185	875.557	965.373	-179.784	878.764	960.082	-61.519	872.350	970.664	-298.050	692.019	1004.301	-140.976	692.520	1001.599	-226.627	755.023	471.327	-55.256	975.998	493.049	-309.678	718.885	476.454	-165.051	987.128	473.023	-197.583	648.195	73.489	-113.644	864.968	116.495	-273.634	666.598	92.251	-179.442	894.869	123.819	-215.065	685.568	1424.242	-147.469	815.538	1353.335	-108.283	814.019	1357.709	-216.028	797.669	1362.502	-158.667	883.344	1202.011	-178.194	818.619	560.868	15.791	1088.434	627.065	-266.392	829.399	629.572	-45.453	1001.574	648.261	-300.306	815.858	544.939	-74.491	1017.596	561.820	-295.581	696.470	191.165	-15.770	909.252	245.115	-362.139	673.337	170.094	-90.443	893.157	211.455	-289.806	775.969	39.943	-144.013	987.024	54.239	-267.524
	29	0.32500	809.945	899.928	-175.350	803.391	873.044	-106.857	800.456	880.196	-257.087	746.226	473.619	-111.689	989.116	492.616	-250.782	659.738	75.615	-151.958	921.913	106.767	-239.508	887.618	964.178	-179.478	889.931	958.541	-61.064	885.305	969.816	-297.891	703.822	1003.243	-141.593	704.838	1000.484	-227.216	759.549	471.024	-54.785	989.695	491.955	-308.775	720.759	477.429	-162.878	998.819	472.285	-196.798	648.758	74.112	-113.524	900.547	109.538	-272.017	667.016	92.837	-179.335	930.609	118.228	-213.635	697.605	1422.815	-147.308	827.786	1352.286	-107.942	825.734	1356.213	-215.680	809.551	1361.157	-158.249	895.469	1200.772	-177.553	824.336	559.695	16.060	1100.843	626.181	-266.523	836.257	628.300	-45.660	1013.737	647.041	-300.436	820.417	544.396	-73.747	1029.413	560.361	-295.319	698.513	191.368	-15.421	937.645	240.334	-360.771	674.922	170.714	-89.888	923.952	205.497	-288.541	776.078	39.947	-144.029	1026.104	53.864	-264.908
	30	0.33333	822.653	899.534	-175.198	814.805	871.469	-107.418	813.135	878.990	-257.650	751.452	473.199	-111.436	1002.657	491.420	-249.846	660.228	76.178	-151.899	957.455	101.887	-237.833	899.699	962.722	-179.107	901.016	956.787	-60.534	898.381	968.658	-297.680	715.542	1001.958	-142.336	717.142	999.158	-227.919	764.483	470.552	-54.468	1002.913	490.377	-307.836	727.080	477.345	-163.042	1011.039	470.424	-196.617	649.344	74.759	-113.435	936.066	103.365	-270.411	667.495	93.547	-179.135	965.676	113.671	-211.899	709.342	1421.069	-146.977	839.391	1350.807	-107.228	837.403	1354.570	-215.086	821.556	1359.556	-157.851	907.256	1199.249	-176.617	830.312	558.367	16.380	1112.851	624.558	-266.962	843.341	627.011	-45.379	1025.471	644.851	-300.606	826.925	543.619	-73.356	1041.071	558.487	-295.465	700.797	191.479	-15.121	965.936	236.010	-359.412	676.652	170.506	-89.736	954.196	199.886	-287.083	776.218	39.928	-144.073	1064.700	54.023	-262.084
	31	0.34167	835.193	898.742	-175.296	826.195	869.687	-107.916	825.897	877.499	-258.142	757.134	472.606	-111.350	1015.877	489.855	-248.876	660.715	76.758	-151.882	992.655	97.876	-236.186	911.791	961.028	-178.652	912.027	954.854	-59.923	911.556	967.201	-297.382	727.209	1000.422	-143.242	729.450	997.598	-228.760	769.805	469.908	-54.303	1015.719	488.391	-306.857	733.349	477.692	-163.841	1022.382	468.958	-195.530	649.929	75.444	-113.386	971.321	98.083	-268.833	668.266	94.181	-179.148	1000.081	110.201	-210.069	721.456	1419.450	-146.604	851.052	1348.763	-106.498	849.986	1352.770	-214.941	833.642	1357.726	-157.442	919.123	1197.186	-175.907	836.525	556.922	16.755	1124.504	622.297	-267.582	850.314	625.972	-44.636	1036.768	642.457	-301.094	833.322	542.358	-73.480	1052.044	556.039	-295.340	703.216	191.517	-14.887	993.955	232.262	-358.069	678.298	170.617	-89.453	983.832	195.095	-285.561	776.391	39.889	-144.141	1102.627	54.668	-259.032
	32	0.35000	847.517	897.476	-175.550	837.589	867.714	-108.309	838.738	875.724	-258.521	763.269	471.846	-111.420	1028.814	487.973	-247.871	661.231	77.363	-151.900	1027.303	94.788	-234.577	923.887	959.122	-178.098	922.978	952.783	-59.224	924.797	965.462	-296.973	738.842	998.617	-144.318	741.799	995.785	-229.745	775.500	469.101	-54.279	1028.202	486.080	-305.837	739.266	478.072	-164.411	1033.224	467.393	-193.882	650.507	76.184	-113.383	1006.080	93.764	-267.281	668.764	94.878	-179.305	1034.359	107.606	-208.444	734.012	1417.555	-146.554	863.708	1346.520	-106.423	862.702	1350.573	-214.641	845.814	1355.696	-157.021	931.574	1194.865	-175.760	842.942	555.397	17.176	1135.853	619.524	-268.208	857.858	624.250	-44.236	1047.171	639.669	-301.758	839.848	541.013	-73.502	1062.268	552.950	-295.037	705.654	191.513	-14.732	1021.493	229.167	-356.746	680.291	171.132	-89.097	1013.389	191.363	-284.188	776.603	39.833	-144.226	1139.683	55.718	-255.721
	33	0.35833	859.255	895.227	-175.901	849.014	865.570	-108.567	851.658	873.676	-258.755	769.861	470.934	-111.627	1041.503	485.826	-246.834	661.813	77.999	-151.952	1061.162	92.639	-232.998	935.986	957.039	-177.434	933.890	950.615	-58.426	938.081	963.462	-296.443	750.476	996.535	-145.549	754.229	993.711	-230.857	781.566	468.142	-54.378	1040.460	483.535	-304.780	745.535	478.062	-164.788	1045.234	463.916	-193.042	651.085	76.996	-113.431	1040.089	90.433	-265.740	669.034	95.607	-179.425	1068.168	105.941	-207.038	746.592	1415.252	-146.500	875.881	1344.232	-106.139	874.826	1348.194	-213.925	858.086	1353.506	-156.616	943.498	1192.425	-175.188	849.535	553.813	17.625	1146.940	616.384	-268.645	865.847	622.132	-43.712	1057.072	635.932	-301.694	846.625	539.170	-73.244	1072.633	549.166	-294.856	708.029	191.501	-14.671	1048.339	226.751	-355.443	682.124	171.547	-89.396	1042.829	188.459	-283.223	776.860	39.765	-144.328	1175.642	57.071	-252.102
